<svg xmlns="http://www.w3.org/2000/svg" xmlns:xlink="http://www.w3.org/1999/xlink" width="149.511" height="25.5" viewBox="0 0 149.511 25.5"><defs><clipPath id="clip-path"><path id="Clip_2" data-name="Clip 2" d="M0,0H24V24H0Z" fill="none" stroke="#11151c" stroke-width="1"></path></clipPath></defs><g id="Group_118" data-name="Group 118" transform="translate(2129.75 -1861.25)"><g id="Group_115" data-name="Group 115"><g id="icons_24_ic-24-my-crypto-active_copy" data-name="icons/24/ic-24-my-crypto-active copy" transform="translate(-2003 1862)"><path id="Shape" d="M1.112,16.769c-.061-.008-.125-.019-.189-.033a1.141,1.141,0,0,1-.688-.415,1.284,1.284,0,0,1-.22-.939c.013-.1,1.556-10.612,5.279-13.49A8.933,8.933,0,0,1,12.657.2h0a8.062,8.062,0,0,1,4.659,2.918,8.518,8.518,0,0,1-1.806,11.919C13.432,16.642,9.222,17,5.888,17,3.248,17,1.158,16.775,1.112,16.769Z" transform="translate(3 7)" fill="none" stroke="#11151c" stroke-width="1.5"></path><g id="Shape-2" data-name="Shape"><path id="Shape-3" data-name="Shape" d="M.537,19.722a1.385,1.385,0,0,1-.435-.93C.088,18.686-.716,7.338,2.426,3.472A9.217,9.217,0,0,1,9.552,0a8.3,8.3,0,0,1,5.409,1.978,9.29,9.29,0,0,1,.852,12.88C12.666,18.73,1.641,19.982,1.532,19.991q-.1.008-.2.008H1.289A1.164,1.164,0,0,1,.537,19.722Z" fill="none" stroke="#11151c" stroke-width="1.5"></path><path id="Shape-4" data-name="Shape" d="M.537,19.722a1.385,1.385,0,0,1-.435-.93C.088,18.686-.716,7.338,2.426,3.472A9.217,9.217,0,0,1,9.552,0a8.3,8.3,0,0,1,5.409,1.978,9.29,9.29,0,0,1,.852,12.88C12.666,18.73,1.641,19.982,1.532,19.991q-.1.008-.2.008H1.289A1.164,1.164,0,0,1,.537,19.722Z" fill="none" stroke="#11151c" stroke-width="1.5"></path></g></g></g><g id="Group_116" data-name="Group 116" transform="translate(4.058)"><g id="Group_113" data-name="Group 113" transform="translate(-2066.058 1862)"><g id="Group_3" data-name="Group 3" clip-path="url(#clip-path)"><g id="Fill_1" data-name="Fill 1" transform="translate(2 2)" fill="none" stroke-miterlimit="10"><path d="M16.667,6.667a3.333,3.333,0,1,0-3.333-3.333V5a1.667,1.667,0,0,1-1.667,1.667H8.333A1.667,1.667,0,0,1,6.667,5V1.667A1.667,1.667,0,0,0,5,0H1.667A1.667,1.667,0,0,0,0,1.667V5A1.667,1.667,0,0,0,1.667,6.667H5A1.667,1.667,0,0,1,6.667,8.333v3.333A1.667,1.667,0,0,1,5,13.333H3.333a3.333,3.333,0,1,0,3.333,3.333V15a1.667,1.667,0,0,1,1.667-1.667h3.333A1.667,1.667,0,0,1,13.333,15v3.333A1.667,1.667,0,0,0,15,20h3.333A1.667,1.667,0,0,0,20,18.333V15a1.667,1.667,0,0,0-1.667-1.667H15a1.667,1.667,0,0,1-1.667-1.667V8.333A1.667,1.667,0,0,1,15,6.667Z" stroke="none"></path><path d="M 1.666580200195312 0 C 0.7461700439453125 0 0 0.7461700439453125 0 1.666580200195312 L 0 4.999890327453613 C 0 5.920439720153809 0.7461700439453125 6.666620254516602 1.666580200195312 6.666620254516602 L 4.999890327453613 6.666620254516602 C 5.920439720153809 6.666620254516602 6.666620254516602 7.412790298461914 6.666620254516602 8.33335018157959 L 6.666620254516602 11.66664981842041 C 6.666620254516602 12.58705997467041 5.920439720153809 13.33323001861572 4.999890327453613 13.33323001861572 L 3.333309173583984 13.33323001861572 C 1.492340087890625 13.33323001861572 0 14.82572937011719 0 16.66669082641602 C 0 18.50765991210938 1.492340087890625 20 3.333309173583984 20 C 5.174269676208496 20 6.666620254516602 18.50765991210938 6.666620254516602 16.66669082641602 L 6.666620254516602 14.99995994567871 C 6.666620254516602 14.07955932617188 7.412790298461914 13.33323001861572 8.33335018157959 13.33323001861572 L 11.66664981842041 13.33323001861572 C 12.58705997467041 13.33323001861572 13.33323001861572 14.07955932617188 13.33323001861572 14.99995994567871 L 13.33323001861572 18.3332691192627 C 13.33323001861572 19.25382995605469 14.07955932617188 20 14.99995994567871 20 L 18.3332691192627 20 C 19.25382995605469 20 20 19.25382995605469 20 18.3332691192627 L 20 14.99995994567871 C 20 14.07955932617188 19.25382995605469 13.33323001861572 18.3332691192627 13.33323001861572 L 14.99995994567871 13.33323001861572 C 14.07955932617188 13.33323001861572 13.33323001861572 12.58705997467041 13.33323001861572 11.66664981842041 L 13.33323001861572 8.33335018157959 C 13.33323001861572 7.412790298461914 14.07955932617188 6.666620254516602 14.99995994567871 6.666620254516602 L 16.66669082641602 6.666620254516602 C 18.50765991210938 6.666620254516602 20 5.174269676208496 20 3.333309173583984 C 20 1.492340087890625 18.50765991210938 0 16.66669082641602 0 C 14.82572937011719 0 13.33323001861572 1.492340087890625 13.33323001861572 3.333309173583984 L 13.33323001861572 4.999890327453613 C 13.33323001861572 5.920439720153809 12.58705997467041 6.666620254516602 11.66664981842041 6.666620254516602 L 8.33335018157959 6.666620254516602 C 7.412790298461914 6.666620254516602 6.666620254516602 5.920439720153809 6.666620254516602 4.999890327453613 L 6.666620254516602 1.666580200195312 C 6.666620254516602 0.7461700439453125 5.920439720153809 0 4.999890327453613 0 L 1.666580200195312 0 M 1.666580200195312 -1.5 L 4.999890327453613 -1.5 C 6.746029853820801 -1.5 8.166620254516602 -0.07947921752929688 8.166620254516602 1.666580200195312 L 8.166620254516602 4.999890327453613 C 8.166620254516602 5.091830253601074 8.241410255432129 5.166620254516602 8.33335018157959 5.166620254516602 L 11.66664981842041 5.166620254516602 C 11.75850009918213 5.166620254516602 11.83323001861572 5.091830253601074 11.83323001861572 4.999890327453613 L 11.83323001861572 3.333309173583984 C 11.83323001861572 0.6682090759277344 14.00151062011719 -1.5 16.66669082641602 -1.5 C 19.33179092407227 -1.5 21.5 0.6682090759277344 21.5 3.333309173583984 C 21.5 5.998410224914551 19.33179092407227 8.166620254516602 16.66669082641602 8.166620254516602 L 14.99995994567871 8.166620254516602 C 14.90802001953125 8.166620254516602 14.83323001861572 8.241410255432129 14.83323001861572 8.33335018157959 L 14.83323001861572 11.66664981842041 C 14.83323001861572 11.75850009918213 14.90802001953125 11.83323001861572 14.99995994567871 11.83323001861572 L 18.3332691192627 11.83323001861572 C 20.07941055297852 11.83323001861572 21.5 13.25382041931152 21.5 14.99995994567871 L 21.5 18.3332691192627 C 21.5 20.07941055297852 20.07941055297852 21.5 18.3332691192627 21.5 L 14.99995994567871 21.5 C 13.25382041931152 21.5 11.83323001861572 20.07941055297852 11.83323001861572 18.3332691192627 L 11.83323001861572 14.99995994567871 C 11.83323001861572 14.90802001953125 11.75850009918213 14.83323001861572 11.66664981842041 14.83323001861572 L 8.33335018157959 14.83323001861572 C 8.241410255432129 14.83323001861572 8.166620254516602 14.90802001953125 8.166620254516602 14.99995994567871 L 8.166620254516602 16.66669082641602 C 8.166620254516602 19.33179092407227 5.998410224914551 21.5 3.333309173583984 21.5 C 0.6682090759277344 21.5 -1.5 19.33179092407227 -1.5 16.66669082641602 C -1.5 14.00151062011719 0.6682090759277344 11.83323001861572 3.333309173583984 11.83323001861572 L 4.999890327453613 11.83323001861572 C 5.091830253601074 11.83323001861572 5.166620254516602 11.75850009918213 5.166620254516602 11.66664981842041 L 5.166620254516602 8.33335018157959 C 5.166620254516602 8.241410255432129 5.091830253601074 8.166620254516602 4.999890327453613 8.166620254516602 L 1.666580200195312 8.166620254516602 C -0.07947921752929688 8.166620254516602 -1.5 6.746029853820801 -1.5 4.999890327453613 L -1.5 1.666580200195312 C -1.5 -0.07947921752929688 -0.07947921752929688 -1.5 1.666580200195312 -1.5 Z" stroke="none" fill="#11151c"></path></g></g></g></g><g id="Group_117" data-name="Group 117" transform="translate(0.285)"><g id="Group_114" data-name="Group 114" transform="translate(-2129.285 1864.316)"><g id="Group_92" data-name="Group 92" transform="translate(0 0)"><g id="Group_92-2" data-name="Group 92" transform="translate(0)"><path id="Path_86" data-name="Path 86" d="M2641.438-470.706c0,1.7,4.243,3.085,9.478,3.085,3.746,0,6.983-.707,8.522-1.734a9.347,9.347,0,0,1-2.12-2.092,23.2,23.2,0,0,1-6.4.81c-3.552,0-6.646-.636-8.269-1.577" transform="translate(-2641.438 486.299)" fill="none" stroke="#11151c" stroke-miterlimit="10" stroke-width="1.5"></path><path id="Path_87" data-name="Path 87" d="M2641.438-473.427c0,.548.44,1.062,1.209,1.508,1.623.941,4.717,1.577,8.269,1.577a23.2,23.2,0,0,0,6.4-.81,9.3,9.3,0,0,1-1.364-2.677,25.5,25.5,0,0,1-5.039.473c-3.552,0-6.646-.636-8.269-1.577" transform="translate(-2641.438 486.004)" fill="none" stroke="#11151c" stroke-miterlimit="10" stroke-width="1.5"></path><path id="Path_88" data-name="Path 88" d="M2641.438-476.145c0,.548.44,1.061,1.209,1.507,1.623.941,4.717,1.577,8.269,1.577a25.5,25.5,0,0,0,5.039-.473,9.336,9.336,0,0,1-.44-2.837c0-.031,0-.062,0-.093a26.123,26.123,0,0,1-4.6.388c-3.552,0-6.646-.636-8.269-1.577" transform="translate(-2641.438 485.708)" fill="none" stroke="#11151c" stroke-miterlimit="10" stroke-width="1.5"></path><path id="Path_89" data-name="Path 89" d="M2641.438-478.865c0,.548.44,1.062,1.209,1.507,1.623.941,4.717,1.577,8.269,1.577a26.121,26.121,0,0,0,4.6-.388,9.277,9.277,0,0,1,.568-3.126,25.408,25.408,0,0,1-5.17.5c-3.552,0-6.646-.636-8.269-1.577" transform="translate(-2641.438 485.413)" fill="none" stroke="#11151c" stroke-miterlimit="10" stroke-width="1.5"></path><path id="Path_90" data-name="Path 90" d="M2650.916-478.346a25.41,25.41,0,0,0,5.17-.5,9.353,9.353,0,0,1,3.021-4.138c-1.644-.916-4.694-1.532-8.191-1.532-5.234,0-9.478,1.381-9.478,3.085,0,.548.44,1.061,1.209,1.507C2644.27-478.983,2647.364-478.346,2650.916-478.346Z" transform="translate(-2641.438 484.964)" fill="none" stroke="#11151c" stroke-miterlimit="10" stroke-width="1.5"></path><path id="Path_91" data-name="Path 91" d="M2663.477-484.92a9.3,9.3,0,0,0-5.748,1.981,9.353,9.353,0,0,0-3.021,4.138,9.284,9.284,0,0,0-.568,3.126c0,.031,0,.062,0,.093a9.336,9.336,0,0,0,.44,2.837,9.3,9.3,0,0,0,1.363,2.677,9.352,9.352,0,0,0,2.12,2.092,9.287,9.287,0,0,0,5.416,1.734,9.339,9.339,0,0,0,9.338-9.339A9.338,9.338,0,0,0,2663.477-484.92Z" transform="translate(-2640.06 484.92)" fill="none" stroke="#11151c" stroke-miterlimit="10" stroke-width="1.5"></path></g><line id="Line_4" data-name="Line 4" y2="12.059" transform="translate(0 3.534)" fill="none" stroke="#11151c" stroke-miterlimit="10" stroke-width="1.5"></line></g></g></g></g></svg>