<svg id="Group_266" data-name="Group 266" xmlns="http://www.w3.org/2000/svg" xmlns:xlink="http://www.w3.org/1999/xlink" width="260" height="21.166" viewBox="0 0 260 21.166">
  <defs>
    <clipPath id="clip-path">
      <rect id="Rectangle_62" data-name="Rectangle 62" width="260" height="21.166" fill="#53b3cb"/>
    </clipPath>
  </defs>
  <g id="Group_265" data-name="Group 265" transform="translate(0 0)" clip-path="url(#clip-path)">
    <path id="Path_235" data-name="Path 235" d="M10.9,14.738a.744.744,0,0,1,.213-.569,1.2,1.2,0,0,1,.7-.144h1.7a1.173,1.173,0,0,1,.727.158.8.8,0,0,1,.185.611,7.53,7.53,0,0,1-.37,2.547,5.39,5.39,0,0,1-1.222,1.894q-1.882,1.93-5.69,1.931a7.613,7.613,0,0,1-3.982-.982A6.189,6.189,0,0,1,.652,17.3a6.931,6.931,0,0,1-.513-1.82A20.236,20.236,0,0,1,0,12.8V8.649a17.006,17.006,0,0,1,.158-2.56A9.528,9.528,0,0,1,.652,4.154,5.977,5.977,0,0,1,3.172,1.07,8.181,8.181,0,0,1,7.511,0q3.64,0,5.4,1.908a5.163,5.163,0,0,1,1.166,1.9,7.887,7.887,0,0,1,.343,2.477.785.785,0,0,1-.185.611,1.173,1.173,0,0,1-.727.158H11.747a1.178,1.178,0,0,1-.695-.144.74.74,0,0,1-.213-.569,3.638,3.638,0,0,0-.857-2.561,3.741,3.741,0,0,0-2.644-.768A3.375,3.375,0,0,0,4.408,4.2a7.049,7.049,0,0,0-.852,4v4.778a6.9,6.9,0,0,0,.866,3.94,3.313,3.313,0,0,0,2.89,1.209A3.734,3.734,0,0,0,9.969,17.3a3.553,3.553,0,0,0,.926-2.561" transform="translate(0 0)" fill="#53b3cb"/>
    <path id="Path_236" data-name="Path 236" d="M39.371,13.6a7.9,7.9,0,0,1-1.793,5.621,6.88,6.88,0,0,1-5.237,1.889h-.225a6.879,6.879,0,0,1-5.238-1.889A7.9,7.9,0,0,1,25.084,13.6V1.223a.958.958,0,0,1,.171-.657A1.125,1.125,0,0,1,26,.4h1.649a1.115,1.115,0,0,1,.739.171.928.928,0,0,1,.171.657V13.568q0,4.383,3.5,4.38H32.4q3.5,0,3.5-4.38V1.223a.934.934,0,0,1,.171-.657A1.121,1.121,0,0,1,36.808.4h1.649A1.119,1.119,0,0,1,39.2.566a.951.951,0,0,1,.173.657Z" transform="translate(3.763 0.059)" fill="#53b3cb"/>
    <path id="Path_237" data-name="Path 237" d="M54.2,12.744v7.084a.935.935,0,0,1-.171.653,1.1,1.1,0,0,1-.741.171H51.7a1.1,1.1,0,0,1-.742-.171.941.941,0,0,1-.171-.653V1.223a.963.963,0,0,1,.171-.658A1.132,1.132,0,0,1,51.7.394h6.088q3.383,0,4.951,1.412A5.785,5.785,0,0,1,64.3,6.312v.542q0,4.328-3.445,5.464L65.1,19.828a.892.892,0,0,1,.112.371c0,.3-.246.453-.736.453H62.338a1.189,1.189,0,0,1-.7-.158,2.175,2.175,0,0,1-.495-.667L57.3,12.744Zm0-2.959h3.556a3.278,3.278,0,0,0,2.33-.667,3.135,3.135,0,0,0,.685-2.292v-.4a3.385,3.385,0,0,0-.667-2.39,3.251,3.251,0,0,0-2.348-.685H54.2Z" transform="translate(7.618 0.059)" fill="#53b3cb"/>
    <path id="Path_238" data-name="Path 238" d="M79.264,12.744v7.084a.935.935,0,0,1-.171.653,1.1,1.1,0,0,1-.741.171H76.759a1.1,1.1,0,0,1-.742-.171.941.941,0,0,1-.171-.653V1.223a.963.963,0,0,1,.171-.658,1.132,1.132,0,0,1,.742-.171h6.088q3.383,0,4.951,1.412a5.785,5.785,0,0,1,1.565,4.506v.542q0,4.328-3.445,5.464l4.241,7.511a.892.892,0,0,1,.112.371c0,.3-.246.453-.736.453H87.4a1.189,1.189,0,0,1-.7-.158,2.176,2.176,0,0,1-.494-.667l-3.843-7.084Zm0-2.959H82.82a3.278,3.278,0,0,0,2.33-.667,3.135,3.135,0,0,0,.685-2.292v-.4a3.385,3.385,0,0,0-.667-2.39,3.251,3.251,0,0,0-2.348-.685H79.264Z" transform="translate(11.377 0.059)" fill="#53b3cb"/>
    <path id="Path_239" data-name="Path 239" d="M113.363,19.741a1.212,1.212,0,0,1-.153.727.879.879,0,0,1-.672.185H101.815a1.173,1.173,0,0,1-.727-.158.877.877,0,0,1-.185-.666V1.223a.9.9,0,0,1,.185-.672,1.214,1.214,0,0,1,.727-.158h10.613a.882.882,0,0,1,.666.186,1.17,1.17,0,0,1,.158.727v1.25a1.173,1.173,0,0,1-.158.727.863.863,0,0,1-.666.185h-8.052V8.706h7.311a.88.88,0,0,1,.667.181,1.173,1.173,0,0,1,.158.727v1.25a1.161,1.161,0,0,1-.158.727.859.859,0,0,1-.667.185h-7.311v5.8h8.163a.9.9,0,0,1,.672.185,1.209,1.209,0,0,1,.153.727Z" transform="translate(15.136 0.059)" fill="#53b3cb"/>
    <path id="Path_240" data-name="Path 240" d="M128.141,6.97V19.828a.878.878,0,0,1-.185.667,1.173,1.173,0,0,1-.727.158h-1.565a1.17,1.17,0,0,1-.727-.158.878.878,0,0,1-.185-.667V1.223a.9.9,0,0,1,.185-.672,1.212,1.212,0,0,1,.727-.158h1.648a1.807,1.807,0,0,1,.783.13,1.619,1.619,0,0,1,.528.672l6.8,12.887V1.223a.9.9,0,0,1,.185-.672,1.212,1.212,0,0,1,.727-.158H137.9a1.214,1.214,0,0,1,.727.158.9.9,0,0,1,.185.672v18.6a.878.878,0,0,1-.185.667,1.173,1.173,0,0,1-.727.158h-1.649a1.705,1.705,0,0,1-.782-.13,1.553,1.553,0,0,1-.528-.666Z" transform="translate(18.713 0.059)" fill="#53b3cb"/>
    <path id="Path_241" data-name="Path 241" d="M160.885,14.738a.74.74,0,0,1,.213-.569,1.2,1.2,0,0,1,.7-.144h1.7a1.173,1.173,0,0,1,.727.158.8.8,0,0,1,.185.611,7.53,7.53,0,0,1-.37,2.547,5.391,5.391,0,0,1-1.222,1.894q-1.882,1.93-5.69,1.931a7.613,7.613,0,0,1-3.982-.982,6.189,6.189,0,0,1-2.506-2.884,6.931,6.931,0,0,1-.513-1.82,20.239,20.239,0,0,1-.139-2.676V8.649a17.006,17.006,0,0,1,.158-2.56,9.527,9.527,0,0,1,.495-1.935,5.977,5.977,0,0,1,2.52-3.084A8.181,8.181,0,0,1,157.5,0q3.64,0,5.4,1.908a5.163,5.163,0,0,1,1.166,1.9,7.921,7.921,0,0,1,.343,2.477.785.785,0,0,1-.185.611,1.173,1.173,0,0,1-.727.158h-1.764a1.178,1.178,0,0,1-.695-.144.74.74,0,0,1-.213-.569,3.638,3.638,0,0,0-.857-2.561,3.741,3.741,0,0,0-2.644-.768A3.375,3.375,0,0,0,154.4,4.2a7.049,7.049,0,0,0-.852,4v4.778a6.9,6.9,0,0,0,.866,3.94,3.313,3.313,0,0,0,2.89,1.209,3.734,3.734,0,0,0,2.658-.823,3.553,3.553,0,0,0,.926-2.561" transform="translate(22.499 0)" fill="#53b3cb"/>
    <path id="Path_242" data-name="Path 242" d="M176.311.4a1.252,1.252,0,0,1,.667.13,1.4,1.4,0,0,1,.384.528l4.126,8.39,4.07-8.39a1.356,1.356,0,0,1,.384-.528A1.241,1.241,0,0,1,186.61.4h1.963c.473,0,.713.153.713.459a.863.863,0,0,1-.087.37l-6.089,11.747v6.857a.861.861,0,0,1-.185.667,1.164,1.164,0,0,1-.722.158h-1.654a1.155,1.155,0,0,1-.722-.158.861.861,0,0,1-.185-.667V12.971L173.551,1.224a.863.863,0,0,1-.087-.37c0-.306.24-.459.713-.459Z" transform="translate(26.02 0.059)" fill="#53b3cb"/>
    <path id="Path_243" data-name="Path 243" d="M215.735.4a1.214,1.214,0,0,1,.713.158,2.766,2.766,0,0,1,.509.7L220.342,7l3.5-5.747a3.51,3.51,0,0,1,.5-.685A1.112,1.112,0,0,1,225.065.4H227.2q.624,0,.624.514a.785.785,0,0,1-.139.4l-5.464,8.622,5.747,9.813a.776.776,0,0,1,.144.4q0,.514-.626.514h-2.251a1.25,1.25,0,0,1-.741-.158,2.326,2.326,0,0,1-.482-.695l-3.727-6.686L216.559,19.8a2.632,2.632,0,0,1-.509.695,1.188,1.188,0,0,1-.713.158H213.2q-.626,0-.626-.514a.766.766,0,0,1,.144-.4l5.747-9.729L213,1.307a.794.794,0,0,1-.138-.4q0-.514.624-.514Z" transform="translate(31.888 0.059)" fill="#53b3cb"/>
  </g>
</svg>
