<svg xmlns="http://www.w3.org/2000/svg" width="27.145" height="19.086" viewBox="0 0 27.145 19.086">
  <path id="Path_287" data-name="Path 287" d="M29.611,4.486a3.411,3.411,0,0,0-2.4-2.415C25.095,1.5,16.606,1.5,16.606,1.5S8.117,1.5,6,2.071A3.411,3.411,0,0,0,3.6,4.486a35.78,35.78,0,0,0-.567,6.576A35.781,35.781,0,0,0,3.6,17.639,3.36,3.36,0,0,0,6,20.016c2.117.571,10.605.571,10.605.571s8.489,0,10.605-.571a3.36,3.36,0,0,0,2.4-2.377,35.781,35.781,0,0,0,.567-6.576A35.78,35.78,0,0,0,29.611,4.486ZM13.83,15.1V7.026l7.095,4.036Z" transform="translate(-3.033 -1.5)" fill="#53b3cb"/>
</svg>
